<svg xmlns="http://www.w3.org/2000/svg">
  <symbol width="24" height="25" viewBox="0 0 24 25" fill="none" id="timer">
    <path opacity="0.4"
      d="M12.0001 22.5C14.2995 22.5 16.5048 21.5865 18.1307 19.9606C19.7566 18.3346 20.6701 16.1294 20.6701 13.83C20.6701 11.5305 19.7566 9.3253 18.1307 7.69936C16.5048 6.07342 14.2995 5.15997 12.0001 5.15997C9.70065 5.15997 7.4954 6.07342 5.86946 7.69936C4.24352 9.3253 3.33008 11.5305 3.33008 13.83C3.33008 16.1294 4.24352 18.3346 5.86946 19.9606C7.4954 21.5865 9.70065 22.5 12.0001 22.5V22.5Z"
      fill="#8B92A2" />
    <path
      d="M11.9999 14.25C11.5899 14.25 11.2499 13.91 11.2499 13.5V8.5C11.2499 8.09 11.5899 7.75 11.9999 7.75C12.4099 7.75 12.7499 8.09 12.7499 8.5V13.5C12.7499 13.91 12.4099 14.25 11.9999 14.25ZM14.8899 3.95H9.10989C8.70989 3.95 8.38989 3.63 8.38989 3.23C8.38989 2.83 8.70989 2.5 9.10989 2.5H14.8899C15.2899 2.5 15.6099 2.82 15.6099 3.22C15.6099 3.62 15.2899 3.95 14.8899 3.95V3.95Z"
      fill="#8B92A2" />
  </symbol>

  <symbol width="24" height="25" viewBox="0 0 24 25" fill="none" id="calendar">
    <path fill-rule="evenodd" clip-rule="evenodd"
      d="M8 1.75C8.19891 1.75 8.38968 1.82902 8.53033 1.96967C8.67098 2.11032 8.75 2.30109 8.75 2.5V5.5C8.75 5.69891 8.67098 5.88968 8.53033 6.03033C8.38968 6.17098 8.19891 6.25 8 6.25C7.80109 6.25 7.61032 6.17098 7.46967 6.03033C7.32902 5.88968 7.25 5.69891 7.25 5.5V2.5C7.25 2.30109 7.32902 2.11032 7.46967 1.96967C7.61032 1.82902 7.80109 1.75 8 1.75ZM16 1.75C16.1989 1.75 16.3897 1.82902 16.5303 1.96967C16.671 2.11032 16.75 2.30109 16.75 2.5V5.5C16.75 5.69891 16.671 5.88968 16.5303 6.03033C16.3897 6.17098 16.1989 6.25 16 6.25C15.8011 6.25 15.6103 6.17098 15.4697 6.03033C15.329 5.88968 15.25 5.69891 15.25 5.5V2.5C15.25 2.30109 15.329 2.11032 15.4697 1.96967C15.6103 1.82902 15.8011 1.75 16 1.75Z"
      fill="#8B92A2" />
    <path opacity="0.4"
      d="M21.5 8.87V17.63C21.5 17.79 21.49 17.95 21.48 18.1H2.52C2.51 17.95 2.5 17.79 2.5 17.63V8.87C2.5 7.5784 3.01309 6.33969 3.92639 5.42639C4.83969 4.51309 6.0784 4 7.37 4H16.63C17.9216 4 19.1603 4.51309 20.0736 5.42639C20.9869 6.33969 21.5 7.5784 21.5 8.87V8.87Z"
      fill="#8B92A2" />
    <path
      d="M21.48 18.102C21.3619 19.3066 20.8 20.4241 19.9036 21.2373C19.0072 22.0506 17.8403 22.5014 16.63 22.502H7.37002C4.84002 22.502 2.76002 20.572 2.52002 18.102H21.48V18.102ZM13.53 12.122C13.98 11.812 14.26 11.352 14.26 10.732C14.26 9.43202 13.22 8.76202 12 8.76202C10.78 8.76202 9.73002 9.43202 9.73002 10.732C9.73002 11.352 10.02 11.822 10.46 12.122C9.85002 12.482 9.50002 13.062 9.50002 13.742C9.50002 14.982 10.45 15.752 12 15.752C13.54 15.752 14.5 14.982 14.5 13.742C14.5 13.062 14.15 12.472 13.53 12.122ZM12 10.002C12.52 10.002 12.9 10.292 12.9 10.792C12.9 11.282 12.52 11.592 12 11.592C11.48 11.592 11.1 11.282 11.1 10.792C11.1 10.292 11.48 10.002 12 10.002V10.002ZM12 14.502C11.34 14.502 10.86 14.172 10.86 13.572C10.86 12.972 11.34 12.652 12 12.652C12.66 12.652 13.14 12.982 13.14 13.572C13.14 14.172 12.66 14.502 12 14.502Z"
      fill="#8B92A2" />
  </symbol>
</svg>